<svg id="Layer_1" data-name="Layer 1" xmlns="http://www.w3.org/2000/svg" viewBox="0 0 475.77 285.35"><title>hd</title><path d="M439.19,252.75v56.71h-3.13V197.61h3.13v52h78.33v-52h3.13V309.46h-3.13V252.75H439.19Z" transform="translate(-436.06 -197.61)"/><path d="M598.83,309.46H595.7v-19.9h-0.31a28.56,28.56,0,0,1-3.52,8.62,27.21,27.21,0,0,1-14.65,11.51,33.55,33.55,0,0,1-10.81,1.65,33.92,33.92,0,0,1-11.51-1.88,24.57,24.57,0,0,1-15-14.65,34,34,0,0,1-2.11-12.45V228.94h3.13v53a31.4,31.4,0,0,0,2,12,22.33,22.33,0,0,0,5.56,8.15,21.89,21.89,0,0,0,8.15,4.7,31.68,31.68,0,0,0,9.79,1.49,28,28,0,0,0,12.69-2.74,26.94,26.94,0,0,0,9.16-7.36,32.26,32.26,0,0,0,5.56-10.73,43.43,43.43,0,0,0,1.88-12.85V228.94h3.13v80.52Z" transform="translate(-436.06 -197.61)"/><path d="M677.31,282.52h-0.46a25.84,25.84,0,0,1-4.38,9.56,29.55,29.55,0,0,1-7.5,7.13,34.64,34.64,0,0,1-9.46,4.39,36.2,36.2,0,0,1-10.24,1.49,32.4,32.4,0,0,1-14.69-3.13,30.33,30.33,0,0,1-10.39-8.38,36.57,36.57,0,0,1-6.25-12.22,50.79,50.79,0,0,1-2.11-14.8A51.63,51.63,0,0,1,614,251.26a36.84,36.84,0,0,1,6.58-12.53,31.34,31.34,0,0,1,10.89-8.54,34.07,34.07,0,0,1,15-3.13,31.73,31.73,0,0,1,19.82,6.74,29.6,29.6,0,0,1,6.74,7.44,31.91,31.91,0,0,1,4,9.16h0.31V228.94h3V306.8q0,16.6-8.83,24.44t-24.61,7.83a46.19,46.19,0,0,1-11.57-1.41,28.44,28.44,0,0,1-9.69-4.46,22.08,22.08,0,0,1-6.72-7.91,26.39,26.39,0,0,1-2.66-11.59h3.13a22.51,22.51,0,0,0,2.43,10.18,19.76,19.76,0,0,0,6,6.89,26,26,0,0,0,8.62,3.92,41.25,41.25,0,0,0,10.34,1.25q14.72,0,22.64-7t7.91-22.09V282.52Zm-0.16-16a47,47,0,0,0-2-13.47,36.53,36.53,0,0,0-5.8-11.67,28.62,28.62,0,0,0-9.63-8.15,28.14,28.14,0,0,0-13.32-3.06,30.63,30.63,0,0,0-13.71,2.9,28.68,28.68,0,0,0-9.87,7.91,33.9,33.9,0,0,0-6,11.59,48.58,48.58,0,0,0-2,13.94,47.54,47.54,0,0,0,2,13.94,33,33,0,0,0,5.8,11.2,27.25,27.25,0,0,0,9.48,7.52,29.37,29.37,0,0,0,13,2.74,32,32,0,0,0,13.71-2.82,28.69,28.69,0,0,0,10-7.6,33.65,33.65,0,0,0,6.11-11.2A43.8,43.8,0,0,0,677.16,266.54Z" transform="translate(-436.06 -197.61)"/><path d="M697.37,197.61h3.13v51.23h0.31a28.45,28.45,0,0,1,3.52-8.62A27.21,27.21,0,0,1,719,228.7a33.55,33.55,0,0,1,10.81-1.64,33.93,33.93,0,0,1,11.51,1.88,25.29,25.29,0,0,1,9.09,5.56,25,25,0,0,1,6,9.09A34,34,0,0,1,758.46,256v53.42h-3.13v-53a31.45,31.45,0,0,0-2-12,22.37,22.37,0,0,0-5.56-8.15,22,22,0,0,0-8.15-4.7,31.78,31.78,0,0,0-9.79-1.49,28,28,0,0,0-12.69,2.74,27,27,0,0,0-9.16,7.36A32.24,32.24,0,0,0,702.38,251a43.44,43.44,0,0,0-1.88,12.85v45.59h-3.13V197.61Z" transform="translate(-436.06 -197.61)"/><path d="M774.13,269.83A68.16,68.16,0,0,0,776,284.94a33.62,33.62,0,0,0,5.56,12.14,27,27,0,0,0,9.79,8.15,32.33,32.33,0,0,0,14.57,3q12.53,0,21-6.74t10.5-19.9h3.13A35.37,35.37,0,0,1,836.87,294a30.76,30.76,0,0,1-7.44,9.4A32.4,32.4,0,0,1,819,309.3a38.78,38.78,0,0,1-12.77,2,35.34,35.34,0,0,1-16.06-3.05,28.9,28.9,0,0,1-10.89-8.93A39,39,0,0,1,773,285.88a65.44,65.44,0,0,1-2-16.68,50,50,0,0,1,3-17.86,41.69,41.69,0,0,1,7.83-13.24,32.92,32.92,0,0,1,11.2-8.22,32.24,32.24,0,0,1,13.24-2.82,34.25,34.25,0,0,1,16.21,3.6,31.94,31.94,0,0,1,11.12,9.56,39.83,39.83,0,0,1,6.27,13.63,55.87,55.87,0,0,1,1.65,16H774.13Zm64.23-3.13a47.74,47.74,0,0,0-2-14,34.93,34.93,0,0,0-6-11.67,28.49,28.49,0,0,0-9.95-7.91,31.15,31.15,0,0,0-13.79-2.9,30.31,30.31,0,0,0-12.3,2.51,29.14,29.14,0,0,0-10,7.28,37.68,37.68,0,0,0-7,11.51,48.41,48.41,0,0,0-3.13,15.2h64.23Z" transform="translate(-436.06 -197.61)"/><path d="M906.5,252.75a25.4,25.4,0,0,0-1.88-10.34,18.18,18.18,0,0,0-5.33-7,22,22,0,0,0-8.22-4,41.72,41.72,0,0,0-10.57-1.25q-8.46,0-13.32,2.27a19.55,19.55,0,0,0-7.21,5.25,14.72,14.72,0,0,0-3,5.72,20.25,20.25,0,0,0-.63,3.84q0,6,2.43,9.16a15.53,15.53,0,0,0,6.5,4.94,69.53,69.53,0,0,0,9.16,3q4.93,1.26,11.51,3,4.7,1.26,9.32,2.58a31.66,31.66,0,0,1,8.3,3.68,19.09,19.09,0,0,1,6,6,17.43,17.43,0,0,1,2.27,9.4,19.46,19.46,0,0,1-2.59,10.34,21.23,21.23,0,0,1-6.74,6.89,30.22,30.22,0,0,1-9.4,3.92,44.76,44.76,0,0,1-10.42,1.25q-16,0-24.28-7.13t-8.3-22.32h3.13q0,13.48,7.68,19.9t21.78,6.42a41.71,41.71,0,0,0,9-1,27.5,27.5,0,0,0,8.38-3.29,19.54,19.54,0,0,0,6.19-5.87,15.33,15.33,0,0,0,2.43-8.77,14.16,14.16,0,0,0-2.43-8.62,19.14,19.14,0,0,0-6.27-5.4,36.86,36.86,0,0,0-8.85-3.37q-5-1.25-10.18-2.51-5.8-1.41-10.18-2.66a56.05,56.05,0,0,1-7.83-2.82,15.45,15.45,0,0,1-7.36-6.11q-2.35-3.91-2.35-10.5a18.91,18.91,0,0,1,1.41-6.89,17.48,17.48,0,0,1,4.7-6.58,25.4,25.4,0,0,1,8.46-4.86,37.37,37.37,0,0,1,12.69-1.88q13.47,0,21.3,6.11t7.83,19.58H906.5Z" transform="translate(-436.06 -197.61)"/><path d="M475.1,338.37q25.85,0,39.79,13.16t13.94,40.1a90.57,90.57,0,0,1-3.13,25A46.71,46.71,0,0,1,516,434.95a42.08,42.08,0,0,1-16.76,11.36q-10.19,3.92-24.12,3.92H436.71V338.37H475.1Zm1.25,99.32a62.26,62.26,0,0,0,6.27-.39,35,35,0,0,0,8-1.88,36.49,36.49,0,0,0,8.38-4.31,28.29,28.29,0,0,0,7.44-7.68,42.91,42.91,0,0,0,5.4-12.14,63.87,63.87,0,0,0,2.11-17.62,75,75,0,0,0-2-17.94,34.43,34.43,0,0,0-6.42-13.47,28.24,28.24,0,0,0-11.51-8.46q-7-2.9-17.39-2.9H451.6v86.79h24.75Z" transform="translate(-436.06 -197.61)"/><path d="M602.14,445.05q-9.09,6.9-22.87,6.89a41.6,41.6,0,0,1-16.84-3.13,33.16,33.16,0,0,1-12-8.77,37.22,37.22,0,0,1-7.28-13.47,64.8,64.8,0,0,1-2.74-17.08,48.74,48.74,0,0,1,2.82-16.92,40.44,40.44,0,0,1,7.91-13.32,35.9,35.9,0,0,1,12.06-8.77,36.83,36.83,0,0,1,15.27-3.13q10.81,0,17.94,4.46a35.51,35.51,0,0,1,11.44,11.36,44.94,44.94,0,0,1,6,15,64.53,64.53,0,0,1,1.33,15.51H554.52a32.13,32.13,0,0,0,1.25,10.1,22.84,22.84,0,0,0,4.54,8.46,22.38,22.38,0,0,0,8,5.88,27.56,27.56,0,0,0,11.44,2.19q8.46,0,13.86-3.92t7.13-11.91h13.16Q611.23,438.16,602.14,445.05Zm-3.21-52a22.83,22.83,0,0,0-4.86-7.28,23.1,23.1,0,0,0-7.21-4.86,22.82,22.82,0,0,0-9.16-1.8,23.21,23.21,0,0,0-9.32,1.8,21.53,21.53,0,0,0-7.13,4.94,23.62,23.62,0,0,0-4.7,7.28,27.67,27.67,0,0,0-2,8.85H601A27.33,27.33,0,0,0,598.93,393Z" transform="translate(-436.06 -197.61)"/><path d="M639.11,432.13A14.15,14.15,0,0,0,644,437a22.14,22.14,0,0,0,6.89,2.58,39.32,39.32,0,0,0,7.91.78,48.74,48.74,0,0,0,6.58-.47,24.11,24.11,0,0,0,6.34-1.72,11.9,11.9,0,0,0,4.78-3.68,9.81,9.81,0,0,0,1.88-6.19,8.87,8.87,0,0,0-3.92-7.83,33.37,33.37,0,0,0-9.79-4.31q-5.87-1.65-12.77-3a66,66,0,0,1-12.77-3.76,26.39,26.39,0,0,1-9.79-6.81q-3.92-4.38-3.92-12.22a19.4,19.4,0,0,1,2.74-10.5,22.4,22.4,0,0,1,7-7.13,32.43,32.43,0,0,1,9.71-4.07,44.79,44.79,0,0,1,10.73-1.33,64,64,0,0,1,12.69,1.17,29.4,29.4,0,0,1,10.26,4.07,21.11,21.11,0,0,1,7.13,7.83,29.76,29.76,0,0,1,3.13,12.3H675.62a13.51,13.51,0,0,0-2-6.5,13.37,13.37,0,0,0-4.39-4.15,20,20,0,0,0-5.87-2.27,30.23,30.23,0,0,0-6.5-.71,39.66,39.66,0,0,0-6,.47,20.31,20.31,0,0,0-5.56,1.65,11.18,11.18,0,0,0-4.07,3.13,7.9,7.9,0,0,0-1.57,5.09,7.49,7.49,0,0,0,2.43,5.72,19.35,19.35,0,0,0,6.19,3.76,54,54,0,0,0,8.46,2.51q4.7,1,9.4,2.11a101,101,0,0,1,9.79,2.66,32,32,0,0,1,8.46,4.15,20.33,20.33,0,0,1,6,6.5,19.11,19.11,0,0,1,2.27,9.71q0,7.37-3.06,12.22a23.86,23.86,0,0,1-8,7.83,33.39,33.39,0,0,1-11.12,4.15,65.82,65.82,0,0,1-12.3,1.17,57,57,0,0,1-12.85-1.41,31.5,31.5,0,0,1-10.81-4.62,23.53,23.53,0,0,1-7.52-8.46,29.29,29.29,0,0,1-3.13-12.77h13.32A15,15,0,0,0,639.11,432.13Z" transform="translate(-436.06 -197.61)"/><path d="M708,354.66V338.37h13.32v16.29H708Zm13.32,14.57v81H708v-81h13.32Z" transform="translate(-436.06 -197.61)"/><path d="M802.82,473.09Q793.73,483,774.31,483a55.17,55.17,0,0,1-11.51-1.25,35.32,35.32,0,0,1-10.65-4.07,24.8,24.8,0,0,1-7.91-7.36,20.92,20.92,0,0,1-3.45-11.12H754.1a9.84,9.84,0,0,0,2.27,6.11,16.61,16.61,0,0,0,5.17,4.07,25.09,25.09,0,0,0,6.66,2.27,35.89,35.89,0,0,0,6.89.71A24.72,24.72,0,0,0,786.21,470a20.9,20.9,0,0,0,7.52-6.27,25.9,25.9,0,0,0,4.31-9.63,53.93,53.93,0,0,0,1.33-12.38v-5.33h-0.31a22.39,22.39,0,0,1-10.42,11,32.37,32.37,0,0,1-14.8,3.52A35.67,35.67,0,0,1,758,447.71a33.09,33.09,0,0,1-11.28-8.85,37.61,37.61,0,0,1-6.81-13,53.59,53.59,0,0,1-2.27-15.74,61.54,61.54,0,0,1,1.88-14.8,40.38,40.38,0,0,1,6.27-13.79,34.34,34.34,0,0,1,11.59-10.18q7.2-4,17.7-4a29.91,29.91,0,0,1,14.1,3.37,23.73,23.73,0,0,1,10,10.1h0.16V369.23h12.53v74.1Q811.91,463.22,802.82,473.09Zm-17-36.42a21.85,21.85,0,0,0,7.44-7.21,33,33,0,0,0,4.15-10.1,49,49,0,0,0,1.33-11.28,44.43,44.43,0,0,0-1.25-10.5,29.35,29.35,0,0,0-4-9.32,20.8,20.8,0,0,0-7.13-6.66,21.18,21.18,0,0,0-10.65-2.51,23,23,0,0,0-11,2.43,21.32,21.32,0,0,0-7.44,6.5,27.55,27.55,0,0,0-4.23,9.4,45.69,45.69,0,0,0-1.33,11.12,55.7,55.7,0,0,0,1.1,11,31.11,31.11,0,0,0,3.76,9.95,21.13,21.13,0,0,0,7,7.21,20.33,20.33,0,0,0,11,2.74A21.58,21.58,0,0,0,785.82,436.67Z" transform="translate(-436.06 -197.61)"/><path d="M844.49,369.23v12.85h0.31q8.3-14.72,26.32-14.73a35.17,35.17,0,0,1,13.32,2.19,21.94,21.94,0,0,1,8.62,6.11,22.71,22.71,0,0,1,4.62,9.32A50.17,50.17,0,0,1,899,397v53.26H885.69V395.39q0-7.52-4.39-11.91t-12.06-4.39A27.14,27.14,0,0,0,858.67,381a19.83,19.83,0,0,0-7.44,5.33,23,23,0,0,0-4.46,8.07,32.77,32.77,0,0,0-1.49,10.1v45.74H832v-81h12.53Z" transform="translate(-436.06 -197.61)"/></svg>