<svg id="Layer_1" data-name="Layer 1" xmlns="http://www.w3.org/2000/svg" viewBox="0 0 370 379.85"><defs><style>.cls-1{fill:none;}</style></defs><title>infoborder</title><polyline class="cls-1" points="107 10.85 5 10.85 5 374.85 107 374.85"/><polygon points="107 379.85 0 379.85 0 5.84 107 5.84 107 15.85 10 15.85 10 369.85 107 369.85 107 379.85"/><polyline class="cls-1" points="279 10.85 365 10.85 365 374.85 278 374.85"/><polygon points="370 379.85 278 379.85 278 369.85 360 369.85 360 15.85 279 15.85 279 5.84 370 5.84 370 379.85"/><polygon points="180 0 180 20.84 205 0 205 20.84 180 0"/></svg>