<svg id="Layer_1" data-name="Layer 1" xmlns="http://www.w3.org/2000/svg" viewBox="0 0 185.51 56.25"><defs><style>.cls-1{fill:#fff;}</style></defs><title>logoWhite</title><path class="cls-1" d="M0,2.71l14.91-.23L3.73,20.33H26.09L14.91,2.48l14.91.23v40l-14.91.23L26.09,23.72H3.73L14.91,42.93,0,42.69Z"/><path class="cls-1" d="M61.89,35.35c0,1.92.28,6,.28,7.34H58.79c-.06-1.92-.11-4.07-.23-4.57h-.17a9.76,9.76,0,0,1-8.92,5.25c-8.13,0-9.94-5.53-9.94-11.24V16.6h3.39V32c0,4.24,1.19,8.36,6.55,8.36,5,0,9-3.5,9-10.67v-13h3.39Z"/><path class="cls-1" d="M97.41,41c0,13-8.58,15.25-13.89,15.25s-10.28-2-12.93-5.48l2.65-2.49A12.28,12.28,0,0,0,83.52,53.2c10.33,0,10.5-9,10.5-12V37.61h-.11A11.27,11.27,0,0,1,84,42.69c-7.68,0-13.95-6-13.95-13.38S76.35,15.93,84,15.93A11.27,11.27,0,0,1,93.91,21H94V16.6h3.39ZM83.8,19A10.33,10.33,0,1,0,94.14,29.31,10.34,10.34,0,0,0,83.8,19Z"/><path class="cls-1" d="M105.71,0h3.39V21.18h.11a9.76,9.76,0,0,1,8.92-5.25c8.13,0,9.94,5.53,9.94,11.24V42.69h-3.39V27.33c0-4.24-1.19-8.36-6.55-8.36-5,0-9,3.5-9,10.67v13h-3.39Z"/><path class="cls-1" d="M160.15,37.78c-2.65,4-6.66,5.59-11.29,5.59-8,0-13.21-5.7-13.21-13.78,0-7.79,5.42-13.67,13-13.67,8,0,12.25,6.16,12.25,12.2v2.37H139c0,2.82,2,9.83,9.88,9.83a10.48,10.48,0,0,0,8.75-4.63Zm-2.6-10.33a8.78,8.78,0,0,0-9-8.47c-7.4,0-9.49,7.12-9.49,8.47Z"/><path class="cls-1" d="M168.57,36a8.45,8.45,0,0,0,7.57,4.29c2.94,0,6-1.81,6-4.8,0-7.17-15.47-2.15-15.47-12.08,0-5.08,4.63-7.51,8.92-7.51s7.51,1.58,9.21,4.91l-3,1.81A6.38,6.38,0,0,0,175.57,19c-2.43,0-5.53,1.47-5.53,4.18,0,7.06,15.47,1.58,15.47,12.14,0,5.36-4.46,8.08-9.43,8.08-4.46,0-8.47-1.69-10.5-5.31Z"/></svg>