<svg id="Layer_1" data-name="Layer 1" xmlns="http://www.w3.org/2000/svg" viewBox="0 0 274.42 61.17"><defs><style>.cls-1,.cls-2{fill:#fff;}.cls-2{font-size:57.11px;font-family:Helvetica Neue;}</style></defs><title>logo</title><path class="cls-1" d="M272.77,185.06c-0.13-.4-0.27-0.79-0.42-1.18a19.12,19.12,0,0,0-18-12h-15v6h6v13h0.08a3.88,3.88,0,0,1,1.38-1.9,7.68,7.68,0,0,1,2-1.28,10.31,10.31,0,0,1,2.32-.74,11.69,11.69,0,0,1,2.35-.23,11.08,11.08,0,0,1,4.2.7,6.93,6.93,0,0,1,2.67,1.93,7.24,7.24,0,0,1,1.5,2.94,15.79,15.79,0,0,1,.5,3.78v15.12a17.74,17.74,0,0,0,9-8.26,23.57,23.57,0,0,0,1.48-3.41A22,22,0,0,0,272.77,185.06Z" transform="translate(-136.04 -163.93)"/><path class="cls-1" d="M258.35,195.58a5.16,5.16,0,0,0-1.52-3.71,5.31,5.31,0,0,0-3.87-1.38,8.73,8.73,0,0,0-3.37.59,6.32,6.32,0,0,0-2.36,1.68,7.24,7.24,0,0,0-1.41,2.54,10.34,10.34,0,0,0-.47,3.19v14.38h9a21,21,0,0,0,4-.37V195.58h0Z" transform="translate(-136.04 -163.93)"/><text class="cls-2" transform="translate(0 48.94)">Hug</text><text class="cls-2" transform="translate(137.98 48.94)">esign</text></svg>