<svg id="Layer_1" data-name="Layer 1" xmlns="http://www.w3.org/2000/svg" viewBox="0 0 34.66 41"><defs><style>.cls-1{fill:#fff;}</style></defs><title>whitebow</title><path class="cls-1" d="M540.42,45.19c-0.13-.4-0.27-0.79-0.42-1.18a19.12,19.12,0,0,0-18-12H507v6h6V51h0.08a3.88,3.88,0,0,1,1.38-1.9,7.68,7.68,0,0,1,2-1.28,10.31,10.31,0,0,1,2.32-.74,11.69,11.69,0,0,1,2.35-.23,11.08,11.08,0,0,1,4.2.7A6.93,6.93,0,0,1,528,49.48a7.24,7.24,0,0,1,1.5,2.94A15.79,15.79,0,0,1,530,56.2V71.32a17.74,17.74,0,0,0,9-8.26,23.57,23.57,0,0,0,1.48-3.41A22,22,0,0,0,540.42,45.19Z" transform="translate(-507 -32)"/><path class="cls-1" d="M526,55.71A5.16,5.16,0,0,0,524.48,52a5.31,5.31,0,0,0-3.87-1.38,8.73,8.73,0,0,0-3.37.59,6.32,6.32,0,0,0-2.36,1.68,7.24,7.24,0,0,0-1.41,2.54,10.34,10.34,0,0,0-.47,3.19V73h9a21,21,0,0,0,4-.37V55.71Z" transform="translate(-507 -32)"/></svg>